<svg width="24" height="24" fill="none" xmlns="http://www.w3.org/2000/svg"><path d="M11.787 3.278a.659.659 0 0 0-.447.326c-.078.133-.08.218-.091 3.885l-.011 3.749-3.749.011c-3.667.011-3.752.013-3.885.091-.273.161-.396.478-.327.845a.646.646 0 0 0 .327.475c.133.078.218.08 3.885.091l3.749.011.011 3.749c.011 3.667.013 3.752.091 3.885a.646.646 0 0 0 .475.327c.367.069.684-.054.845-.327.078-.133.08-.218.091-3.885l.011-3.749 3.749-.011c3.667-.011 3.752-.013 3.885-.091.273-.161.396-.478.327-.845a.646.646 0 0 0-.327-.475c-.133-.078-.218-.08-3.886-.091l-3.75-.011-.002-3.629c-.001-1.996-.017-3.707-.035-3.803-.079-.408-.458-.621-.936-.528" fill-rule="evenodd" fill="#000"/></svg>