<svg width="24" height="24" fill="none" xmlns="http://www.w3.org/2000/svg"><path d="M11.34 6.238c-5.508.022-5.602.023-5.736.102a.646.646 0 0 0-.327.475c-.069.367.054.684.327.845.134.079.218.08 4.855.091l4.718.011-4.945 4.949c-5.435 5.439-5.095 5.067-4.991 5.454.06.221.373.534.594.594.387.104.015.444 5.455-4.992l4.95-4.946.002 4.599c.001 2.53.017 4.678.035 4.774.07.363.305.538.723.538s.653-.175.723-.538c.018-.096.034-2.702.036-5.792l.004-5.618-.093-.18c-.103-.2-.339-.349-.59-.374-.077-.007-2.66-.004-5.74.008" fill-rule="evenodd" fill="#000"/></svg>