<svg width="24" height="24" fill="none" xmlns="http://www.w3.org/2000/svg"><path d="M11.806 4.246c-.192.055-.51.387-.565.589-.102.38-.245.214 2.991 3.454l2.945 2.95-6.718.01c-6.637.011-6.721.012-6.855.091-.273.161-.396.478-.327.845a.646.646 0 0 0 .327.475c.134.079.218.08 6.855.091l6.718.01-2.945 2.95c-3.236 3.24-3.093 3.074-2.991 3.454.06.221.373.534.594.594.382.103.147.311 4.145-3.672 2.067-2.06 3.678-3.696 3.728-3.787a.748.748 0 0 0 .088-.3.748.748 0 0 0-.088-.3c-.05-.091-1.661-1.727-3.728-3.786-4.022-4.007-3.769-3.785-4.174-3.668" fill-rule="evenodd" fill="#000"/></svg>