<svg width="24" height="24" fill="none" xmlns="http://www.w3.org/2000/svg"><path d="M11.446 9.058c-.971.185-1.834.88-2.211 1.781a3.008 3.008 0 0 0 1.098 3.65 3.01 3.01 0 0 0 3.331.002c1.492-1.014 1.779-3.086.614-4.434a3.363 3.363 0 0 0-1.522-.96c-.317-.086-.961-.106-1.31-.039m1.196 1.597c.289.149.563.421.703.699.105.206.115.263.115.646 0 .376-.011.443-.109.641a1.52 1.52 0 0 1-1.981.719c-.242-.107-.576-.44-.713-.709-.108-.212-.117-.265-.116-.651.002-.491.069-.682.345-.981.357-.389.642-.507 1.176-.488.303.01.397.03.58.124" fill="#22209A" fill-rule="evenodd"/></svg>