<svg width="24" height="24" fill="none" xmlns="http://www.w3.org/2000/svg"><path d="M11.54 2.266C8.813 2.427 6.366 3.62 4.624 5.64 3.348 7.12 2.578 8.876 2.319 10.9c-.066.509-.057 1.789.016 2.32.271 1.98 1.027 3.669 2.309 5.16 2.178 2.533 5.576 3.77 8.897 3.239a9.91 9.91 0 0 0 3.393-1.224c.583-.349.768-.517.809-.736.051-.275-.159-.692-.434-.86-.224-.137-.406-.106-.831.142-1.276.744-2.331 1.119-3.538 1.257-.463.053-1.426.054-1.861.001-4.193-.507-7.313-3.986-7.318-8.16-.002-1.394.281-2.584.906-3.808a8.225 8.225 0 0 1 7.318-4.471c.857 0 1.461.082 2.275.31 2.929.821 5.172 3.235 5.814 6.257.208.983.223 2.313.033 3.042-.303 1.158-.913 1.686-1.873 1.62-.793-.054-1.322-.583-1.58-1.579-.129-.502-.169-1.361-.172-3.71-.002-1.556-.009-1.733-.072-1.857-.125-.246-.249-.303-.65-.303-.295 0-.372.014-.465.082-.223.167-.269.272-.287.652l-.017.355-.286-.216a5.362 5.362 0 0 0-1.565-.761c-.366-.099-.462-.108-1.14-.108-.674 0-.775.01-1.128.105-1.007.273-1.964.934-2.538 1.754a5.378 5.378 0 0 0-.682 1.458c-.099.366-.108.461-.108 1.139 0 .674.01.775.105 1.128.541 1.997 2.3 3.352 4.351 3.352 1.316 0 2.434-.501 3.37-1.512l.19-.205.067.109c.533.869 1.017 1.26 1.873 1.516.348.104 1.368.102 1.76-.003 1.263-.34 2.09-1.417 2.385-3.104.101-.579.111-1.83.019-2.504-.266-1.961-1.041-3.691-2.309-5.157-1.523-1.761-3.541-2.871-5.923-3.258-.284-.046-1.369-.125-1.572-.114l-.32.018m1.32 6.854a3.092 3.092 0 0 1 2.026 2.04c.079.252.094.386.094.84 0 .454-.015.588-.094.84a3.086 3.086 0 0 1-2.046 2.046c-.434.135-1.246.135-1.68 0a3.086 3.086 0 0 1-2.046-2.046c-.079-.252-.094-.386-.094-.84 0-.454.015-.588.094-.84a3.088 3.088 0 0 1 2.329-2.119c.308-.065 1.101-.021 1.417.079" fill-rule="evenodd" fill="#000"/></svg>