<svg width="24" height="24" fill="none" xmlns="http://www.w3.org/2000/svg"><path d="M11.32 1.281c-4.279.244-8.068 3.128-9.477 7.216a10.886 10.886 0 0 0-.279 6.053 10.76 10.76 0 0 0 7.886 7.886 10.96 10.96 0 0 0 5.1 0 10.76 10.76 0 0 0 7.886-7.886 10.96 10.96 0 0 0 0-5.1 10.758 10.758 0 0 0-8.694-8.052c-.408-.067-1.668-.169-1.862-.151l-.56.034m1.826 1.541a9.086 9.086 0 0 1 2.914.874c2.817 1.383 4.708 4.026 5.118 7.158.123.932.066 2.172-.144 3.144-.289 1.345-1.031 2.857-1.913 3.902a9.31 9.31 0 0 1-3.061 2.404 8.94 8.94 0 0 1-4.06.936 8.93 8.93 0 0 1-4.06-.936c-2.817-1.383-4.708-4.026-5.118-7.158-.123-.932-.066-2.172.144-3.144.211-.982.737-2.227 1.302-3.082a9.335 9.335 0 0 1 6.552-4.097c.56-.077 1.749-.077 2.326-.001m-1.359 3.456a.659.659 0 0 0-.447.326c-.078.133-.08.208-.08 3.396 0 3.188.002 3.263.08 3.396.161.273.478.396.845.327a.646.646 0 0 0 .475-.327c.078-.132.08-.22.093-3.176.006-1.672.001-3.152-.014-3.289-.041-.405-.243-.62-.619-.662a1.307 1.307 0 0 0-.333.009m-.186 9.39c-.299.155-.394.492-.35 1.24.024.403.086.562.274.702.226.168.724.168.95 0 .231-.172.265-.294.265-.95 0-.66-.033-.777-.273-.956-.158-.118-.667-.139-.866-.036" fill-rule="evenodd" fill="#000"/></svg>