<svg width="24" height="24" fill="none" xmlns="http://www.w3.org/2000/svg"><path d="M6.787 1.278a.659.659 0 0 0-.447.326c-.071.121-.082.223-.094.92l-.014.785-.666.022c-.78.027-1.128.103-1.597.347a3.124 3.124 0 0 0-1.387 1.41c-.347.688-.322.063-.322 7.952 0 6.574.004 6.998.072 7.286.262 1.115 1.228 2.081 2.344 2.343.286.067.726.071 7.324.071s7.038-.004 7.324-.071c1.116-.262 2.082-1.228 2.344-2.343.068-.288.072-.712.072-7.286 0-7.889.025-7.264-.322-7.952a3.124 3.124 0 0 0-1.387-1.41c-.469-.244-.817-.32-1.597-.347l-.666-.022-.014-.785c-.012-.697-.023-.799-.094-.92-.161-.273-.478-.396-.845-.327a.646.646 0 0 0-.475.327c-.071.121-.082.223-.094.926l-.014.79H7.76l-.002-.67c-.002-.744-.031-.968-.148-1.124-.158-.213-.491-.313-.823-.248m12.503 3.71c.349.165.637.453.802.802l.128.27.012 1.09.012 1.09H3.756l.012-1.09.012-1.09.111-.237c.206-.439.478-.697.936-.885l.233-.096 6.98.009 6.98.009.27.128m.941 9.902-.011 5.13-.124.262a1.783 1.783 0 0 1-.814.814l-.262.124H4.98l-.262-.124a1.783 1.783 0 0 1-.814-.814l-.124-.262-.01-5.13-.011-5.13h16.482l-.01 5.13M6.787 13.278c-.342.068-.519.314-.519.722 0 .462.207.693.663.739.137.014 1.842.02 3.789.013 3.456-.012 3.543-.014 3.676-.092.273-.161.396-.478.327-.845a.646.646 0 0 0-.327-.475c-.133-.078-.214-.08-3.796-.086-2.013-.003-3.729.008-3.813.024m0 4c-.342.069-.519.314-.519.722 0 .461.207.692.663.74.137.014.942.02 1.789.013 1.455-.012 1.547-.017 1.676-.093.273-.161.396-.478.327-.845a.646.646 0 0 0-.327-.475c-.13-.076-.214-.08-1.796-.087-.913-.003-1.729.008-1.813.025" fill-rule="evenodd" fill="#000"/></svg>