<svg width="24" height="24" fill="none" xmlns="http://www.w3.org/2000/svg"><path d="M11.02.807c-1.591.16-3.294.844-4.586 1.842-1.785 1.378-3.006 3.443-3.33 5.632-.183 1.235-.091 2.671.259 4.032.696 2.712 2.426 5.487 5.055 8.107 1.027 1.024 2.648 2.393 3.234 2.732a.728.728 0 0 0 .696 0c.601-.347 2.228-1.725 3.272-2.771 2.893-2.898 4.654-5.915 5.196-8.901.382-2.107.138-4.012-.743-5.78C18.416 2.372 14.814.425 11.02.807m2.129 1.532c2.958.449 5.402 2.618 6.11 5.421a7.22 7.22 0 0 1 .216 2.378c-.218 3.613-2.687 7.524-6.967 11.035-.259.213-.488.387-.508.387-.02 0-.249-.174-.508-.387-2.336-1.916-4.153-3.971-5.356-6.059-1.176-2.038-1.737-4.122-1.615-5.994A7.183 7.183 0 0 1 6.1 5.059c1.342-1.655 3.199-2.612 5.42-2.795.305-.025 1.258.019 1.629.075m-1.702 3.707c-.706.101-1.465.474-2.014.989-1.885 1.768-1.413 4.922.907 6.065.603.297.89.359 1.66.359.566 0 .706-.013.98-.091a3.764 3.764 0 0 0 2.461-5.086c-.632-1.532-2.318-2.476-3.994-2.236m1.112 1.52c.718.154 1.423.86 1.621 1.622.078.299.076.837-.003 1.146-.182.704-.775 1.326-1.497 1.571-.164.056-.337.074-.68.074-.697 0-1.122-.175-1.6-.659-.441-.447-.64-.935-.64-1.567 0-.598.188-1.082.586-1.512.273-.296.497-.455.824-.588.406-.165.887-.195 1.389-.087" fill-rule="evenodd" fill="#000"/></svg>