<svg width="24" height="24" fill="none" xmlns="http://www.w3.org/2000/svg"><path d="M7.016 1.28c-1.266.137-2.39 1.14-2.685 2.396-.067.286-.071.766-.071 8.324 0 7.575.004 8.037.072 8.326.262 1.115 1.228 2.081 2.344 2.343.283.066.646.071 5.324.071s5.041-.005 5.324-.071c1.116-.262 2.082-1.228 2.344-2.343.068-.289.072-.751.072-8.326 0-7.558-.004-8.038-.071-8.324-.256-1.089-1.157-2.016-2.264-2.328-.304-.086-.318-.086-5.205-.092-2.695-.004-5.028.007-5.184.024m10.266 1.624c.342.162.652.472.814.814l.124.262.01 6.63.011 6.63H5.759l.011-6.63.01-6.63.124-.262c.141-.297.453-.634.706-.763.39-.199.126-.19 5.43-.182l4.98.007.262.124M8.787 4.278c-.342.068-.519.314-.519.722 0 .462.207.693.663.739.137.015 1.617.02 3.289.014 2.956-.013 3.044-.015 3.176-.093.273-.161.396-.478.327-.845a.646.646 0 0 0-.327-.475c-.133-.078-.214-.08-3.296-.086-1.738-.003-3.229.007-3.313.024m9.447 15.112c-.014.609-.018.639-.138.892a1.783 1.783 0 0 1-.814.814l-.262.124H6.98l-.262-.124a1.783 1.783 0 0 1-.814-.814c-.12-.253-.124-.283-.137-.892l-.013-.63h12.493l-.013.63" fill-rule="evenodd" fill="#000"/></svg>