<svg width="24" height="24" fill="none" xmlns="http://www.w3.org/2000/svg"><path d="M11.32 1.281c-4.279.244-8.068 3.128-9.477 7.216a10.886 10.886 0 0 0-.279 6.053 10.76 10.76 0 0 0 7.886 7.886 10.96 10.96 0 0 0 5.1 0 10.76 10.76 0 0 0 7.886-7.886 10.96 10.96 0 0 0 0-5.1 10.758 10.758 0 0 0-8.694-8.052c-.408-.067-1.668-.169-1.862-.151l-.56.034m1.826 1.541a9.086 9.086 0 0 1 2.914.874c2.817 1.383 4.708 4.026 5.118 7.158.123.932.066 2.172-.144 3.144-.289 1.345-1.031 2.857-1.913 3.902a9.31 9.31 0 0 1-3.061 2.404 8.94 8.94 0 0 1-4.06.936 8.93 8.93 0 0 1-4.06-.936c-2.817-1.383-4.708-4.026-5.118-7.158-.123-.932-.066-2.172.144-3.144.211-.982.737-2.227 1.302-3.082a9.335 9.335 0 0 1 6.552-4.097c.56-.077 1.749-.077 2.326-.001M11.599 5.85c-.278.141-.329.268-.351.875l-.019.515h-.165a4.19 4.19 0 0 0-1.043.16c-.792.272-1.484 1.055-1.686 1.908-.083.355-.083 1.029 0 1.384.186.783.825 1.558 1.528 1.852.412.172.555.186 2.103.212l1.506.024.201.14c.387.271.567.613.567 1.08 0 .467-.18.809-.567 1.08l-.201.14-1.986.02c-2.226.022-2.191.018-2.375.314-.13.209-.13.683 0 .892.163.263.276.29 1.254.307l.865.015.018.511c.022.602.073.73.351.871.362.183.886.073 1.055-.222.059-.103.08-.242.096-.65l.021-.518h.166c.291 0 .808-.079 1.042-.16.808-.278 1.502-1.084 1.704-1.98.066-.295.057-.995-.018-1.312-.185-.78-.828-1.559-1.528-1.852-.412-.172-.555-.186-2.103-.212l-1.506-.024-.201-.14c-.418-.292-.592-.659-.558-1.177.022-.351.126-.591.352-.816.326-.324.183-.305 2.399-.327 2.219-.022 2.185-.018 2.369-.314.13-.209.13-.683 0-.892-.163-.263-.276-.29-1.253-.307l-.865-.015-.021-.514c-.016-.404-.037-.543-.096-.646-.106-.184-.374-.312-.654-.312a.86.86 0 0 0-.401.09" fill-rule="evenodd" fill="#000"/></svg>