<svg width="24" height="24" fill="none" xmlns="http://www.w3.org/2000/svg"><path d="M11.48 3.283c-3.314.241-5.966 2.913-6.197 6.244-.18 2.593 1.091 4.977 3.377 6.334.055.033.01.064-.249.17-1.048.428-2.622 1.57-3.491 2.532-.7.775-1.563 1.968-1.662 2.299-.145.48.316.938.909.904.152-.009.328-.172.562-.522 1.625-2.433 3.586-3.879 5.931-4.371.384-.08.554-.092 1.34-.092s.956.012 1.34.092c2.344.492 4.307 1.939 5.931 4.371.312.467.432.546.789.519.269-.021.643-.332.7-.583.052-.232-.034-.437-.432-1.024-.994-1.468-1.987-2.459-3.382-3.376-.456-.3-1.214-.71-1.525-.824l-.158-.058.198-.115c1.563-.903 2.77-2.603 3.139-4.42.893-4.4-2.637-8.406-7.12-8.08m1.6 1.576c.61.136 1.33.437 1.813.758a5.993 5.993 0 0 1 1.49 1.49c.193.291.465.851.589 1.213.196.575.248.924.248 1.68 0 .964-.125 1.522-.523 2.33a4.52 4.52 0 0 1-.717 1.082 5.295 5.295 0 0 1-2.94 1.735c-.478.103-1.602.103-2.08 0a5.295 5.295 0 0 1-4.107-4.107c-.055-.255-.073-.514-.073-1.04 0-.756.052-1.105.248-1.68.124-.362.396-.922.589-1.213a5.993 5.993 0 0 1 1.49-1.49 5.571 5.571 0 0 1 1.833-.753c.176-.033.356-.069.4-.08.186-.044 1.449.01 1.74.075" fill-rule="evenodd" fill="#000"/></svg>