<svg width="24" height="24" fill="none" xmlns="http://www.w3.org/2000/svg"><path d="M7.221 2.361c-.519.11-.868.231-1.323.46A5.13 5.13 0 0 0 3.561 5.18c-.432.885-.54 1.393-.537 2.52.01 3.453 1.437 6.838 3.938 9.338 2.5 2.501 5.885 3.928 9.338 3.938 1.127.003 1.635-.105 2.52-.537a5.16 5.16 0 0 0 2.399-2.419c.225-.467.322-.763.429-1.305.078-.395.082-.472.038-.727a1.444 1.444 0 0 0-.796-1.079 94.65 94.65 0 0 0-2.438-1.067c-2.335-.999-2.466-1.042-2.892-.957-.311.063-.396.112-1.719.995l-1.185.79-.158-.079C11.279 13.98 10 12.709 9.437 11.55l-.088-.181.819-1.254c.451-.69.847-1.327.881-1.415.092-.24.119-.534.072-.78-.038-.199-1.729-4.217-2.006-4.768-.209-.418-.522-.683-.952-.808-.277-.081-.494-.077-.942.017M8.71 5.97c.512 1.194.93 2.183.93 2.199 0 .016-.369.595-.821 1.286-.451.692-.845 1.327-.875 1.412-.157.446-.112.824.161 1.353a8.777 8.777 0 0 0 2.875 3.208c.404.272 1.027.6 1.278.673.288.084.695.061.952-.053.095-.042.717-.439 1.381-.882s1.222-.806 1.238-.806c.017 0 1.009.418 2.205.93l2.174.93-.024.209c-.035.305-.227.841-.428 1.199-.206.365-.838 1.027-1.216 1.273a4.26 4.26 0 0 1-1.08.478c-.774.204-2.27.13-3.62-.177-3.396-.774-6.351-3.041-7.939-6.092-.85-1.631-1.277-3.167-1.379-4.949-.069-1.232.105-2.022.612-2.761.203-.297.742-.831 1.03-1.023.455-.302 1.146-.568 1.496-.575l.121-.002.929 2.17" fill-rule="evenodd" fill="#000"/></svg>