<svg width="24" height="24" fill="none" xmlns="http://www.w3.org/2000/svg"><path d="M4.793 3.277a.645.645 0 0 0-.418.265c-.154.235-.147.716.015.933.168.225.272.252 1.102.288 1.701.073 3.065.347 4.568.918 1.923.731 3.51 1.763 5.003 3.256 1.493 1.493 2.525 3.08 3.256 5.003.571 1.503.845 2.867.918 4.568.036.83.063.934.288 1.102.217.162.698.169.933.015.266-.174.305-.382.259-1.359a14.847 14.847 0 0 0-.476-3.2c-.873-3.369-2.781-6.285-5.541-8.469-1.368-1.083-3.146-2.022-4.9-2.589-1.19-.385-2.58-.649-3.72-.706-.975-.049-1.145-.053-1.287-.025m-.006 7.002c-.341.066-.519.313-.519.721 0 .564.258.754 1.027.758.598.004 1.456.174 2.165.429a7.24 7.24 0 0 1 4.352 4.353c.269.754.376 1.296.427 2.151.037.635.077.763.286.919.226.168.724.168.95 0 .226-.168.266-.302.256-.85-.046-2.431-1.201-4.858-3.051-6.41a8.96 8.96 0 0 0-3.96-1.926c-.594-.12-1.653-.2-1.933-.145m-.12 7.786C4.303 18.177 4 18.602 4 19c0 .517.483 1 1 1s1-.483 1-1c0-.402-.312-.827-.69-.939a.941.941 0 0 0-.643.004" fill-rule="evenodd" fill="#000"/></svg>