<svg width="24" height="24" fill="none" xmlns="http://www.w3.org/2000/svg"><path d="M19.1 3.267c-.277.041-16.896 4.751-17.06 4.835a1.464 1.464 0 0 0-.759 1.031c-.09.477.11 1.038.481 1.352.126.107 1.31.687 4.054 1.987l3.876 1.836 1.846 3.895c1.703 3.598 1.86 3.912 2.043 4.099.233.238.479.366.804.419.598.098 1.243-.223 1.509-.75.053-.105 1.163-3.971 2.466-8.591 2.623-9.296 2.472-8.685 2.277-9.2-.121-.323-.486-.693-.797-.809-.238-.088-.549-.132-.74-.104m.129 1.544c-.011.027-1.051 3.708-2.312 8.18-1.261 4.471-2.304 8.129-2.318 8.129-.014 0-.794-1.623-1.734-3.608l-1.709-3.607 2.078-2.083c1.142-1.145 2.099-2.124 2.125-2.176.247-.483-.357-1.184-.897-1.042-.14.037-.447.328-2.265 2.141l-2.102 2.099-3.608-1.709c-1.984-.94-3.607-1.72-3.607-1.734 0-.02 16.203-4.619 16.334-4.637.019-.002.026.019.015.047" fill-rule="evenodd" fill="#000"/></svg>