<svg width="24" height="24" fill="none" xmlns="http://www.w3.org/2000/svg"><path d="M9.661 1.282c-.762.119-1.525.589-1.924 1.187-.085.127-.166.245-.18.263-.013.017-.131-.031-.261-.107-1.661-.98-3.744.107-4.016 2.094a3.138 3.138 0 0 0 .283 1.686l.074.146-.168.026A2.483 2.483 0 0 0 3 6.733c-1.104.48-1.735 1.436-1.735 2.627-.001.441.086.828.264 1.18.196.385 4.508 7.837 4.734 8.18a8.967 8.967 0 0 0 8.037 3.998 7.804 7.804 0 0 0 1.52-.219c1.635-.38 3.255-1.303 4.398-2.505 1.642-1.728 2.511-3.881 2.514-6.234.002-1.505-.342-2.931-1.011-4.185-.271-.508-2.257-3.946-2.398-4.151-.158-.23-.582-.616-.853-.777-.686-.408-1.588-.494-2.363-.227-.672.232-1.153.662-1.608 1.44-.035.058-.128-.076-.558-.805-1.696-2.872-1.71-2.894-2.116-3.202-.6-.454-1.457-.681-2.164-.571m7.132-.004c-.393.076-.603.444-.516.907.077.412.26.524.949.577.778.06 1.104.143 1.714.441.532.26.93.579 1.322 1.061.348.43.464.51.727.506.316-.005.74-.343.782-.624.045-.302-.23-.768-.769-1.307-.885-.881-2.154-1.446-3.502-1.558-.528-.044-.5-.044-.707-.003M10.64 2.884c.121.057.289.173.374.26.091.093.932 1.47 2.073 3.396a623.4 623.4 0 0 1 1.941 3.29c.011.028-.1.179-.248.336a4.762 4.762 0 0 0-1.011 1.674c-.205.583-.266.954-.265 1.62.001.839.12 1.373.472 2.121.302.64.548.815.964.684.233-.073.475-.26.566-.436.087-.169.048-.462-.098-.723a3.243 3.243 0 0 1-.42-1.646 3.309 3.309 0 0 1 .484-1.754c.196-.336.673-.82 1.086-1.102.376-.258.462-.355.502-.569.039-.209-.035-.371-.65-1.437-.649-1.124-.73-1.337-.659-1.72.084-.455.335-.796.735-1.002.263-.135.703-.15 1.014-.035.437.162.551.319 1.749 2.404 1.431 2.492 1.624 2.908 1.853 4.015.127.608.173 1.676.1 2.299a7.517 7.517 0 0 1-2.35 4.681c-.998.938-2.225 1.567-3.646 1.869-.461.097-.587.107-1.406.109-.944.002-1.164-.022-1.9-.205a7.507 7.507 0 0 1-4.295-2.973c-.218-.316-4.457-7.63-4.706-8.12a1.325 1.325 0 0 1 .212-1.487c.262-.281.552-.408.938-.411l.308-.002.246.24c.135.132.312.33.393.44.165.222 1.688 2.614 2.204 3.46.362.594.444.698.617.788.262.137.769-.044.972-.345.113-.167.119-.437.016-.663-.172-.377-1.951-3.285-2.282-3.73-.348-.467-1.463-2.183-1.651-2.54-.128-.243-.132-.883-.007-1.155.203-.438.581-.715 1.018-.746.352-.025.583.058.845.303.185.172 1.051 1.58 3.088 5.018.323.544.635 1.035.695 1.091.244.227.56.219.914-.025.23-.158.344-.354.344-.591 0-.238.01-.219-.861-1.645-1.512-2.473-2.069-3.415-2.112-3.575a1.446 1.446 0 0 1 .096-.89c.129-.253.41-.506.682-.614.296-.116.765-.097 1.066.043M2.894 18.24c-.286.064-.601.343-.654.58-.049.216.029.427.315.852a10.476 10.476 0 0 0 2.851 2.826c.38.252.558.31.784.26.309-.068.63-.574.579-.913-.025-.175-.242-.391-.723-.722a9.19 9.19 0 0 1-2.05-2.003c-.482-.667-.531-.729-.636-.802a.599.599 0 0 0-.466-.078" fill-rule="evenodd" fill="#000"/></svg>