<svg width="24" height="24" viewBox="0 0 24 24" fill="none" xmlns="http://www.w3.org/2000/svg">
<path d="M20.25 9.57692C20.25 16.8462 12 22.5 12 22.5C12 22.5 3.75 16.8462 3.75 9.57692C3.75 7.43479 4.61919 5.38039 6.16637 3.86568C7.71354 2.35096 9.81196 1.5 12 1.5C14.188 1.5 16.2865 2.35096 17.8336 3.86568C19.3808 5.38039 20.25 7.43479 20.25 9.57692V9.57692Z" stroke="#22209A" stroke-width="1.5" stroke-linecap="round" stroke-linejoin="round"/>
<path d="M12 12.75C13.6569 12.75 15 11.4069 15 9.75C15 8.09315 13.6569 6.75 12 6.75C10.3431 6.75 9 8.09315 9 9.75C9 11.4069 10.3431 12.75 12 12.75Z" stroke="#22209A" stroke-width="1.5" stroke-linecap="round" stroke-linejoin="round"/>
</svg>
