<svg width="24" height="24" viewBox="0 0 24 24" fill="none" xmlns="http://www.w3.org/2000/svg">
<path d="M12 6.5L12 8" stroke="#22209A" stroke-width="1.5" stroke-linecap="round" stroke-linejoin="round"/>
<path d="M12 16V17.5" stroke="#22209A" stroke-width="1.5" stroke-linecap="round" stroke-linejoin="round"/>
<path d="M12 22C17.5228 22 22 17.5228 22 12C22 6.47715 17.5228 2 12 2C6.47715 2 2 6.47715 2 12C2 17.5228 6.47715 22 12 22Z" stroke="#22209A" stroke-width="1.5" stroke-linecap="round" stroke-linejoin="round"/>
<path d="M9.75 16H13.125C13.6223 16 14.0992 15.7893 14.4508 15.4142C14.8025 15.0391 15 14.5304 15 14C15 13.4696 14.8025 12.9609 14.4508 12.5858C14.0992 12.2107 13.6223 12 13.125 12H10.875C10.3777 12 9.90081 11.7893 9.54917 11.4142C9.19754 11.0391 9 10.5304 9 10C9 9.46957 9.19754 8.96086 9.54917 8.58579C9.90081 8.21071 10.3777 8 10.875 8H14.25" stroke="#22209A" stroke-width="1.5" stroke-linecap="round" stroke-linejoin="round"/>
</svg>
