<svg width="28" height="28" viewBox="0 0 28 28" fill="none" xmlns="http://www.w3.org/2000/svg">
<path d="M16.75 0.0230508C23.5 0.833051 28 4.43305 28 11.993C28 17.393 25.03 19.823 21.79 19.823C18.64 19.823 16.39 17.4831 16.39 14.6031C16.39 11.6331 18.55 9.74305 20.89 9.74305C21.34 9.74305 21.61 9.83305 21.88 9.83305C22.24 9.83305 22.6 9.47305 22.6 8.93305C22.6 6.77305 20.89 4.88305 16.3 3.62305C15.13 3.26305 14.68 2.72305 14.68 1.82305C14.68 0.743047 15.31 -0.156952 16.75 0.0230508ZM2.17 0.0230508C8.92 0.833051 13.42 4.43305 13.42 11.993C13.42 17.393 10.45 19.823 7.21 19.823C4.06 19.823 1.81 17.4831 1.81 14.6031C1.81 11.6331 3.97 9.74305 6.31 9.74305C6.76 9.74305 7.03 9.83305 7.3 9.83305C7.66 9.83305 8.02 9.47305 8.02 8.93305C8.02 6.77305 6.31 4.88305 1.72 3.62305C0.549999 3.26305 0.1 2.72305 0.1 1.82305C0.1 0.743047 0.73 -0.156952 2.17 0.0230508Z" fill="currentColor"/>
</svg>
