<svg width="28" height="28" viewBox="0 0 28 28" fill="none" xmlns="http://www.w3.org/2000/svg">
<path d="M11.25 0.0230508C4.5 0.833051 0 4.43305 0 11.993C0 17.393 2.97 19.823 6.21 19.823C9.36 19.823 11.61 17.4831 11.61 14.6031C11.61 11.6331 9.45 9.74305 7.11 9.74305C6.66 9.74305 6.39 9.83305 6.12 9.83305C5.76 9.83305 5.4 9.47305 5.4 8.93305C5.4 6.77305 7.11 4.88305 11.7 3.62305C12.87 3.26305 13.32 2.72305 13.32 1.82305C13.32 0.743047 12.69 -0.156952 11.25 0.0230508ZM25.83 0.0230508C19.08 0.833051 14.58 4.43305 14.58 11.993C14.58 17.393 17.55 19.823 20.79 19.823C23.94 19.823 26.19 17.4831 26.19 14.6031C26.19 11.6331 24.03 9.74305 21.69 9.74305C21.24 9.74305 20.97 9.83305 20.7 9.83305C20.34 9.83305 19.98 9.47305 19.98 8.93305C19.98 6.77305 21.69 4.88305 26.28 3.62305C27.45 3.26305 27.9 2.72305 27.9 1.82305C27.9 0.743047 27.27 -0.156952 25.83 0.0230508Z" fill="currentColor"/>
</svg>
