<svg width="24" height="24" viewBox="0 0 24 24" fill="none" xmlns="http://www.w3.org/2000/svg">
<path d="M5 4C8.97825 4 12.7936 5.58035 15.6066 8.3934C18.4196 11.2064 20 15.0218 20 19" stroke="#22209A" stroke-width="1.5" stroke-linecap="round" stroke-linejoin="round"/>
<path d="M5 11C6.05057 11 7.09086 11.2069 8.06147 11.609C9.03207 12.011 9.91399 12.6003 10.6569 13.3431C11.3997 14.086 11.989 14.9679 12.391 15.9385C12.7931 16.9091 13 17.9494 13 19" stroke="#22209A" stroke-width="1.5" stroke-linecap="round" stroke-linejoin="round"/>
<path d="M5 20C5.55228 20 6 19.5523 6 19C6 18.4477 5.55228 18 5 18C4.44772 18 4 18.4477 4 19C4 19.5523 4.44772 20 5 20Z" fill="#22209A"/>
</svg>
