<svg width="24" height="24" viewBox="0 0 24 24" fill="none" xmlns="http://www.w3.org/2000/svg">
<path d="M19.0951 4.02673L2.51851 8.70217C2.37906 8.7415 2.25493 8.82246 2.16272 8.93423C2.07051 9.046 2.01461 9.18325 2.00249 9.32764C1.99038 9.47202 2.02262 9.61667 2.09491 9.74225C2.1672 9.86782 2.27609 9.96834 2.40704 10.0304L10.0234 13.6381C10.1719 13.7085 10.2915 13.8281 10.3619 13.9766L13.9696 21.593C14.0317 21.7239 14.1322 21.8328 14.2578 21.9051C14.3833 21.9774 14.528 22.0096 14.6724 21.9975C14.8168 21.9854 14.954 21.9295 15.0658 21.8373C15.1775 21.7451 15.2585 21.6209 15.2978 21.4815L19.9733 4.90492C20.0076 4.78316 20.0089 4.65444 19.9769 4.53202C19.945 4.40961 19.881 4.29792 19.7915 4.20846C19.7021 4.119 19.5904 4.055 19.468 4.02306C19.3456 3.99112 19.2168 3.99238 19.0951 4.02673Z" stroke="#22209A" stroke-width="1.5" stroke-linecap="round" stroke-linejoin="round"/>
<path d="M10.3933 13.6066L14.636 9.36395" stroke="#22209A" stroke-width="1.5" stroke-linecap="round" stroke-linejoin="round"/>
</svg>
