<svg width="24" height="24" viewBox="0 0 24 24" fill="none" xmlns="http://www.w3.org/2000/svg">
<path d="M10.9668 9.57121L8.27641 5.02626C8.00252 4.56268 7.92854 4.012 8.07075 3.49525C8.21295 2.9785 8.55969 2.53795 9.03477 2.27043C9.50985 2.00291 10.0744 1.9303 10.6043 2.06856C11.1343 2.20683 11.5863 2.54465 11.8609 3.00778L16 10" stroke="#22209A" stroke-width="1.5" stroke-linecap="round" stroke-linejoin="round"/>
<path d="M8 12L4.26378 6.13198C4.13465 5.89462 4.05077 5.63252 4.01695 5.36068C3.98313 5.08884 4.00002 4.81257 4.06667 4.54767C4.13331 4.28277 4.24839 4.03443 4.40534 3.81685C4.56229 3.59927 4.75803 3.41671 4.98137 3.2796C5.20471 3.1425 5.45127 3.05353 5.70696 3.0178C5.96265 2.98206 6.22245 3.00026 6.47153 3.07134C6.7206 3.14242 6.95406 3.265 7.15856 3.43206C7.36305 3.59913 7.53458 3.80741 7.66334 4.045L11 9.5" stroke="#22209A" stroke-width="1.5" stroke-linecap="round" stroke-linejoin="round"/>
<path d="M14.7812 15.5276C14.2342 14.5791 14.086 13.452 14.3691 12.3941C14.6523 11.3362 15.3435 10.4343 16.2909 9.88668L15.2597 8.09858C15.124 7.86375 15.0359 7.60445 15.0004 7.33551C14.9648 7.06656 14.9826 6.79324 15.0526 6.53117C15.1226 6.26909 15.2436 6.0234 15.4085 5.80814C15.5734 5.59288 15.779 5.41226 16.0137 5.27662C16.2484 5.14098 16.5074 5.05296 16.7761 5.01761C17.0447 4.98225 17.3177 5.00025 17.5794 5.07058C17.8411 5.1409 18.0864 5.26217 18.3013 5.42746C18.5161 5.59274 18.6964 5.7988 18.8317 6.03386L20.8939 9.61006C21.4358 10.5493 21.7877 11.5863 21.9292 12.6617C22.0708 13.7372 21.9995 14.83 21.7192 15.8778C21.4389 16.9256 20.9551 17.9078 20.2956 18.7684C19.6361 19.629 18.8138 20.3512 17.8755 20.8935C16.9372 21.4359 15.9014 21.7879 14.8272 21.9294C13.7531 22.0709 12.6616 21.9992 11.6151 21.7183C10.5686 21.4375 9.58761 20.953 8.72818 20.2925C7.86874 19.632 7.14768 18.8085 6.60618 17.869L2.27543 10.3589C2.00251 9.88472 1.9288 9.32143 2.0705 8.79283C2.2122 8.26424 2.55772 7.8136 3.03113 7.53995C3.50454 7.2663 4.0671 7.19203 4.59518 7.33346C5.12326 7.47489 6.22628 9.02625 6.5 9.5L8.11585 12.228" stroke="#22209A" stroke-width="1.5" stroke-linecap="round" stroke-linejoin="round"/>
<path d="M6 22C4.77082 21.2163 3.7462 20.1916 3 19" stroke="#22209A" stroke-width="1.5" stroke-linecap="round" stroke-linejoin="round"/>
<path d="M17 2C17.8109 1.99991 18.6075 2.1847 19.3097 2.5358C20.0119 2.88689 20.5949 3.39189 21 4" stroke="#22209A" stroke-width="1.5" stroke-linecap="round" stroke-linejoin="round"/>
</svg>
