<svg xmlns="http://www.w3.org/2000/svg" xmlns:xlink="http://www.w3.org/1999/xlink" width="600" height="400" viewBox="0 0 600 400"><rect width="100%" height="100%" fill="#DDDDDD"/><path d="M140.84 180.92L122.54 180.92L122.54 193.12L137.99 193.12L137.99 199.24L122.54 199.24L122.54 216.03L114.85 216.03L114.85 174.82L140.84 174.82L140.84 180.92ZM161.45 208.48L161.45 203.55Q158.40 203.69 156.32 204.08Q154.24 204.46 152.98 205.06Q151.73 205.66 151.19 206.46Q150.65 207.25 150.65 208.19L150.65 208.19Q150.65 210.05 151.74 210.84Q152.84 211.64 154.61 211.64L154.61 211.64Q156.77 211.64 158.36 210.86Q159.94 210.07 161.45 208.48L161.45 208.48ZM146.57 193.12L145.32 190.87Q150.36 186.25 157.46 186.25L157.46 186.25Q160.02 186.25 162.05 187.09Q164.07 187.93 165.47 189.43Q166.86 190.92 167.59 193.00Q168.32 195.08 168.32 197.56L168.32 197.56L168.32 216.03L165.12 216.03Q164.13 216.03 163.58 215.73Q163.04 215.43 162.73 214.52L162.73 214.52L162.10 212.41Q160.99 213.41 159.94 214.16Q158.88 214.92 157.74 215.43Q156.60 215.95 155.31 216.22Q154.01 216.49 152.44 216.49L152.44 216.49Q150.59 216.49 149.02 215.99Q147.45 215.49 146.31 214.49Q145.17 213.49 144.55 212.01Q143.92 210.53 143.92 208.56L143.92 208.56Q143.92 207.45 144.29 206.36Q144.66 205.26 145.50 204.26Q146.34 203.26 147.68 202.38Q149.02 201.50 150.97 200.84Q152.93 200.19 155.52 199.77Q158.11 199.36 161.45 199.27L161.45 199.27L161.45 197.56Q161.45 194.63 160.19 193.22Q158.94 191.81 156.57 191.81L156.57 191.81Q154.86 191.81 153.74 192.21Q152.61 192.60 151.76 193.10Q150.90 193.60 150.20 194.00Q149.51 194.40 148.65 194.40L148.65 194.40Q147.91 194.40 147.40 194.01Q146.88 193.63 146.57 193.12L146.57 193.12ZM175.01 173.68L182.05 173.68L182.05 216.03L175.01 216.03L175.01 173.68ZM189.18 173.68L196.22 173.68L196.22 216.03L189.18 216.03L189.18 173.68ZM210.30 195.34L210.30 208.45Q211.49 209.90 212.90 210.50Q214.31 211.10 215.88 211.10L215.88 211.10Q217.51 211.10 218.80 210.52Q220.10 209.93 221.01 208.69Q221.92 207.45 222.41 205.53Q222.89 203.61 222.89 200.93L222.89 200.93Q222.89 196.11 221.30 193.96Q219.70 191.81 216.71 191.81L216.71 191.81Q214.69 191.81 213.17 192.73Q211.66 193.66 210.30 195.34L210.30 195.34ZM210.30 173.68L210.30 190.38Q212.06 188.53 214.22 187.43Q216.37 186.33 219.13 186.33L219.13 186.33Q221.67 186.33 223.71 187.33Q225.74 188.33 227.18 190.20Q228.62 192.06 229.39 194.71Q230.16 197.36 230.16 200.67L230.16 200.67Q230.16 204.23 229.28 207.14Q228.39 210.05 226.76 212.11Q225.12 214.18 222.81 215.32Q220.50 216.46 217.68 216.46L217.68 216.46Q216.31 216.46 215.20 216.19Q214.09 215.92 213.15 215.43Q212.21 214.95 211.42 214.25Q210.64 213.55 209.93 212.70L209.93 212.70L209.61 214.66Q209.44 215.40 209.03 215.72Q208.61 216.03 207.90 216.03L207.90 216.03L203.26 216.03L203.26 173.68L210.30 173.68ZM251.05 208.48L251.05 203.55Q248.00 203.69 245.92 204.08Q243.84 204.46 242.59 205.06Q241.33 205.66 240.79 206.46Q240.25 207.25 240.25 208.19L240.25 208.19Q240.25 210.05 241.35 210.84Q242.44 211.64 244.21 211.64L244.21 211.64Q246.38 211.64 247.96 210.86Q249.54 210.07 251.05 208.48L251.05 208.48ZM236.17 193.12L234.92 190.87Q239.96 186.25 247.06 186.25L247.06 186.25Q249.63 186.25 251.65 187.09Q253.67 187.93 255.07 189.43Q256.47 190.92 257.19 193.00Q257.92 195.08 257.92 197.56L257.92 197.56L257.92 216.03L254.73 216.03Q253.73 216.03 253.19 215.73Q252.65 215.43 252.33 214.52L252.33 214.52L251.71 212.41Q250.60 213.41 249.54 214.16Q248.49 214.92 247.35 215.43Q246.21 215.95 244.91 216.22Q243.61 216.49 242.05 216.49L242.05 216.49Q240.19 216.49 238.63 215.99Q237.06 215.49 235.92 214.49Q234.78 213.49 234.15 212.01Q233.52 210.53 233.52 208.56L233.52 208.56Q233.52 207.45 233.89 206.36Q234.26 205.26 235.11 204.26Q235.95 203.26 237.29 202.38Q238.63 201.50 240.58 200.84Q242.53 200.19 245.12 199.77Q247.72 199.36 251.05 199.27L251.05 199.27L251.05 197.56Q251.05 194.63 249.80 193.22Q248.54 191.81 246.18 191.81L246.18 191.81Q244.47 191.81 243.34 192.21Q242.22 192.60 241.36 193.10Q240.51 193.60 239.81 194.00Q239.11 194.40 238.25 194.40L238.25 194.40Q237.51 194.40 237.00 194.01Q236.49 193.63 236.17 193.12L236.17 193.12ZM287.33 190.41L285.48 192.97Q285.17 193.37 284.87 193.60Q284.57 193.83 284.00 193.83L284.00 193.83Q283.46 193.83 282.94 193.50Q282.43 193.17 281.72 192.76Q281.00 192.35 280.02 192.02Q279.04 191.69 277.58 191.69L277.58 191.69Q275.73 191.69 274.34 192.36Q272.94 193.03 272.01 194.29Q271.09 195.54 270.63 197.32Q270.17 199.10 270.17 201.35L270.17 201.35Q270.17 203.69 270.67 205.51Q271.17 207.34 272.11 208.58Q273.05 209.82 274.39 210.46Q275.73 211.10 277.41 211.10L277.41 211.10Q279.10 211.10 280.14 210.69Q281.18 210.27 281.89 209.78Q282.60 209.28 283.13 208.86Q283.66 208.45 284.31 208.45L284.31 208.45Q285.17 208.45 285.59 209.11L285.59 209.11L287.62 211.67Q286.45 213.04 285.08 213.97Q283.71 214.89 282.24 215.45Q280.78 216.00 279.22 216.23Q277.67 216.46 276.13 216.46L276.13 216.46Q273.42 216.46 271.03 215.45Q268.64 214.44 266.84 212.50Q265.04 210.56 264.00 207.75Q262.96 204.94 262.96 201.35L262.96 201.35Q262.96 198.13 263.89 195.38Q264.82 192.63 266.61 190.62Q268.41 188.61 271.06 187.47Q273.71 186.33 277.16 186.33L277.16 186.33Q280.43 186.33 282.90 187.39Q285.37 188.44 287.33 190.41L287.33 190.41ZM292.01 173.68L299.05 173.68L299.05 197.93L300.36 197.93Q301.07 197.93 301.48 197.75Q301.90 197.56 302.32 196.99L302.32 196.99L309.59 188.02Q310.05 187.42 310.60 187.10Q311.16 186.79 312.04 186.79L312.04 186.79L318.48 186.79L309.39 197.65Q308.42 198.93 307.28 199.62L307.28 199.62Q307.88 200.04 308.35 200.61Q308.82 201.18 309.25 201.84L309.25 201.84L319.00 216.03L312.64 216.03Q311.81 216.03 311.21 215.76Q310.62 215.49 310.22 214.78L310.22 214.78L302.75 203.69Q302.35 203.04 301.92 202.84Q301.50 202.64 300.64 202.64L300.64 202.64L299.05 202.64L299.05 216.03L292.01 216.03L292.01 173.68ZM345.13 174.82L345.13 216.03L337.43 216.03L337.43 174.82L345.13 174.82ZM360.26 216.03L353.22 216.03L353.22 186.79L357.53 186.79Q358.90 186.79 359.32 188.07L359.32 188.07L359.78 190.24Q360.55 189.38 361.39 188.67Q362.23 187.96 363.18 187.45Q364.14 186.93 365.24 186.63Q366.33 186.33 367.64 186.33L367.64 186.33Q370.41 186.33 372.19 187.83Q373.97 189.33 374.86 191.81L374.86 191.81Q375.54 190.35 376.57 189.31Q377.59 188.27 378.82 187.62Q380.04 186.96 381.42 186.65Q382.81 186.33 384.20 186.33L384.20 186.33Q386.63 186.33 388.51 187.08Q390.39 187.82 391.67 189.24Q392.95 190.67 393.62 192.72Q394.29 194.77 394.29 197.42L394.29 197.42L394.29 216.03L387.25 216.03L387.25 197.42Q387.25 194.63 386.03 193.22Q384.80 191.81 382.44 191.81L382.44 191.81Q381.35 191.81 380.43 192.18Q379.50 192.55 378.80 193.25Q378.10 193.94 377.71 195.00Q377.31 196.05 377.31 197.42L377.31 197.42L377.31 216.03L370.24 216.03L370.24 197.42Q370.24 194.49 369.06 193.15Q367.87 191.81 365.59 191.81L365.59 191.81Q364.05 191.81 362.73 192.56Q361.40 193.32 360.26 194.63L360.26 194.63L360.26 216.03ZM416.41 208.48L416.41 203.55Q413.36 203.69 411.28 204.08Q409.20 204.46 407.94 205.06Q406.69 205.66 406.15 206.46Q405.61 207.25 405.61 208.19L405.61 208.19Q405.61 210.05 406.70 210.84Q407.80 211.64 409.57 211.64L409.57 211.64Q411.73 211.64 413.32 210.86Q414.90 210.07 416.41 208.48L416.41 208.48ZM401.53 193.12L400.28 190.87Q405.32 186.25 412.42 186.25L412.42 186.25Q414.98 186.25 417.01 187.09Q419.03 187.93 420.43 189.43Q421.82 190.92 422.55 193.00Q423.28 195.08 423.28 197.56L423.28 197.56L423.28 216.03L420.08 216.03Q419.09 216.03 418.55 215.73Q418.00 215.43 417.69 214.52L417.69 214.52L417.06 212.41Q415.95 213.41 414.90 214.16Q413.84 214.92 412.70 215.43Q411.56 215.95 410.27 216.22Q408.97 216.49 407.40 216.49L407.40 216.49Q405.55 216.49 403.98 215.99Q402.41 215.49 401.27 214.49Q400.13 213.49 399.51 212.01Q398.88 210.53 398.88 208.56L398.88 208.56Q398.88 207.45 399.25 206.36Q399.62 205.26 400.46 204.26Q401.30 203.26 402.64 202.38Q403.98 201.50 405.93 200.84Q407.89 200.19 410.48 199.77Q413.07 199.36 416.41 199.27L416.41 199.27L416.41 197.56Q416.41 194.63 415.15 193.22Q413.90 191.81 411.53 191.81L411.53 191.81Q409.82 191.81 408.70 192.21Q407.57 192.60 406.72 193.10Q405.86 193.60 405.17 194.00Q404.47 194.40 403.61 194.40L403.61 194.40Q402.87 194.40 402.36 194.01Q401.84 193.63 401.53 193.12L401.53 193.12ZM440.58 200.70L440.58 200.70Q441.89 200.70 442.86 200.34Q443.83 199.99 444.47 199.36Q445.11 198.73 445.44 197.85Q445.76 196.96 445.76 195.91L445.76 195.91Q445.76 193.74 444.47 192.48Q443.17 191.21 440.58 191.21L440.58 191.21Q437.98 191.21 436.69 192.48Q435.39 193.74 435.39 195.91L435.39 195.91Q435.39 196.94 435.72 197.82Q436.04 198.70 436.69 199.34Q437.33 199.99 438.31 200.34Q439.29 200.70 440.58 200.70ZM448.53 217.34L448.53 217.34Q448.53 216.49 448.01 215.95Q447.50 215.40 446.62 215.10Q445.73 214.81 444.55 214.66Q443.37 214.52 442.04 214.45Q440.72 214.38 439.31 214.32Q437.90 214.26 436.56 214.09L436.56 214.09Q435.39 214.75 434.66 215.63Q433.94 216.52 433.94 217.68L433.94 217.68Q433.94 218.45 434.32 219.12Q434.71 219.79 435.55 220.28Q436.39 220.76 437.73 221.03Q439.07 221.30 441.00 221.30L441.00 221.30Q442.97 221.30 444.40 221.00Q445.82 220.71 446.75 220.18Q447.67 219.65 448.10 218.92Q448.53 218.20 448.53 217.34ZM447.13 187.79L455.54 187.79L455.54 190.41Q455.54 191.66 454.03 191.95L454.03 191.95L451.41 192.43Q452.00 193.94 452.00 195.74L452.00 195.74Q452.00 197.91 451.14 199.66Q450.27 201.41 448.73 202.64Q447.19 203.86 445.09 204.53Q443.00 205.20 440.58 205.20L440.58 205.20Q439.72 205.20 438.92 205.12Q438.13 205.03 437.36 204.89L437.36 204.89Q435.99 205.71 435.99 206.74L435.99 206.74Q435.99 207.62 436.80 208.04Q437.61 208.45 438.95 208.62Q440.29 208.79 442.00 208.84Q443.71 208.88 445.51 209.02Q447.30 209.16 449.01 209.52Q450.72 209.88 452.06 210.64Q453.40 211.41 454.21 212.74Q455.03 214.06 455.03 216.15L455.03 216.15Q455.03 218.08 454.07 219.91Q453.12 221.73 451.31 223.16Q449.50 224.58 446.86 225.45Q444.22 226.32 440.86 226.32L440.86 226.32Q437.56 226.32 435.10 225.68Q432.65 225.04 431.03 223.97Q429.40 222.90 428.61 221.50Q427.81 220.11 427.81 218.60L427.81 218.60Q427.81 216.54 429.05 215.16Q430.29 213.78 432.45 212.95L432.45 212.95Q431.29 212.35 430.60 211.36Q429.92 210.36 429.92 208.74L429.92 208.74Q429.92 208.08 430.16 207.38Q430.40 206.68 430.87 206.00Q431.34 205.32 432.05 204.70Q432.77 204.09 433.74 203.61L433.74 203.61Q431.51 202.41 430.25 200.41Q428.98 198.42 428.98 195.74L428.98 195.74Q428.98 193.57 429.85 191.82Q430.72 190.07 432.27 188.83Q433.82 187.59 435.95 186.93Q438.07 186.28 440.58 186.28L440.58 186.28Q442.46 186.28 444.11 186.66Q445.76 187.05 447.13 187.79L447.13 187.79ZM465.54 198.05L478.82 198.05Q478.82 196.68 478.44 195.47Q478.05 194.26 477.28 193.35Q476.51 192.43 475.33 191.91Q474.15 191.38 472.58 191.38L472.58 191.38Q469.53 191.38 467.78 193.12Q466.03 194.86 465.54 198.05L465.54 198.05ZM483.50 202.29L465.40 202.29Q465.57 204.55 466.20 206.18Q466.82 207.82 467.85 208.89Q468.88 209.96 470.29 210.49Q471.70 211.02 473.41 211.02L473.41 211.02Q475.12 211.02 476.36 210.62Q477.60 210.22 478.52 209.73Q479.45 209.25 480.15 208.85Q480.85 208.45 481.50 208.45L481.50 208.45Q482.39 208.45 482.81 209.11L482.81 209.11L484.84 211.67Q483.67 213.04 482.21 213.97Q480.76 214.89 479.18 215.45Q477.60 216.00 475.96 216.23Q474.32 216.46 472.78 216.46L472.78 216.46Q469.73 216.46 467.11 215.45Q464.49 214.44 462.55 212.45Q460.61 210.47 459.50 207.55Q458.39 204.63 458.39 200.78L458.39 200.78Q458.39 197.79 459.36 195.16Q460.33 192.52 462.14 190.57Q463.95 188.61 466.55 187.47Q469.16 186.33 472.44 186.33L472.44 186.33Q475.20 186.33 477.54 187.22Q479.88 188.10 481.56 189.80Q483.24 191.49 484.20 193.96Q485.15 196.42 485.15 199.59L485.15 199.59Q485.15 201.18 484.81 201.74Q484.47 202.29 483.50 202.29L483.50 202.29Z" fill="#999999"/></svg>